<?xml version="1.0" encoding="UTF-8"?>
<svg id="Layer_1" xmlns="http://www.w3.org/2000/svg" xmlns:svg="http://www.w3.org/2000/svg" version="1.1" viewBox="0 0 60 60">
  <!-- Generator: Adobe Illustrator 29.0.1, SVG Export Plug-In . SVG Version: 2.1.0 Build 192)  -->
  <defs>
    <style>
      .st0 {
        fill: #fff;
      }
    </style>
  </defs>
  <path class="st0" d="M43.8,16.5h11.4c.4,0,1.5,1,1.3,1.5v33c-.9,5-4.9,8.4-10,8.8-10.9.7-22.6-.5-33.6,0-4.9-.4-8.9-4.1-9.6-9.1V18c-.2-.6,1-1.5,1.4-1.5h11.4v-3.9C16.2,5.6,23.8-.3,30.6,0s13.2,6.1,13.2,12.7v3.9ZM40,16.5v-4.2c0-.7-.9-2.8-1.3-3.6-3.8-6.7-13.9-6.7-17.6.1-.4.7-1.2,2.7-1.2,3.4v4.2h20.1ZM16.2,20.3H7v30.1c0,2.3,3.2,5.4,5.5,5.6h34.4c2.5.1,6-3.2,6-5.6v-30.1h-9.2v4.9c0,.2-.6,1-.8,1.1-.7.4-2,.3-2.5-.3s-.5-.9-.5-1v-4.8h-20.1v4.8c0,.1-.5,1-.6,1.1-.5.5-1.7.6-2.3.2s-.8-1-.8-1.1v-4.9Z"/>
</svg>