<svg width="325" height="94" viewBox="0 0 326 96" fill="none" xmlns="http://www.w3.org/2000/svg">
<path d="M57.6547 93.0135L79.8921 92.6216L78.3814 5.52105L60.2011 5.84073L61.247 66.1329L24.5685 6.46634L0 6.89945L1.51075 94L19.568 93.6838L18.4469 29.1911L57.6513 93.0135H57.6547ZM133.975 93.5291C160.143 93.0685 177.79 76.1976 177.291 47.4128C176.789 18.5041 158.564 2.26238 132.396 2.71956C106.228 3.18017 88.5807 20.051 89.0831 48.9596C89.5821 77.7445 107.807 93.9863 133.975 93.5291ZM133.715 78.7035C115.655 79.0198 110.111 64.0395 109.844 48.5952C109.574 33.0272 114.595 17.8614 132.652 17.5451C150.713 17.2289 156.257 32.2091 156.527 47.7771C156.797 63.2214 151.776 78.3873 133.715 78.7035ZM208.248 92.2263C230.855 91.831 243.908 79.2432 243.522 57.0032L242.578 2.6405L223.656 2.97393L224.624 58.6944C224.812 69.4431 220.149 76.9401 208.354 77.1464C196.562 77.3526 191.766 70.0241 191.578 59.2753L190.611 3.55485L170.831 3.90203L171.775 58.2647C172.161 80.5047 185.522 92.6285 208.248 92.2297V92.2263ZM288.714 90.8135C314.144 90.3667 325.232 77.8132 324.996 64.3489C324.73 49.0284 315.624 41.1567 297.745 37.7605L284.551 35.0243C276.037 33.1956 273.149 29.5382 273.053 24.1037C272.957 18.5454 276.929 13.654 286.633 13.4855C295.971 13.3205 300.609 18.5557 302.591 26.5511L322.44 23.2375C319.463 7.47006 306.423 -0.332861 286.77 0.0108796C262.567 0.437119 252.456 12.6021 252.702 26.8089C252.897 38.0527 259.347 48.5677 278.587 52.5551L293.756 55.7485C300.294 57.2403 304.03 60.0178 304.14 66.3185C304.259 73.1143 298.309 77.1739 289.463 77.3286C280.248 77.4901 273.891 72.2893 271.266 62.5718L251.051 66.1398C255.649 83.2375 270.285 91.1366 288.714 90.8135Z" fill="white"></path>
</svg>