<?xml version="1.0" encoding="UTF-8"?>
<svg id="Layer_1" xmlns="http://www.w3.org/2000/svg" xmlns:svg="http://www.w3.org/2000/svg" version="1.1" viewBox="0 0 60 60">
  <!-- Generator: Adobe Illustrator 29.0.1, SVG Export Plug-In . SVG Version: 2.1.0 Build 192)  -->
  <defs>
    <style>
      .st0 {
        fill: #fff;
      }
    </style>
  </defs>
  <path class="st0" d="M51.4,57H8.5c-2.9-.5-4.9-2.6-5.5-5.5.1-1.9-.2-4,0-5.9.3-4.1,2.8-7.4,6-9.7,3.3-2.4,7.4-4.1,11.4-4.9,0-.2,0-.2-.1-.3-1.7-1.7-2.9-2.6-4.1-4.9C8.7,11.7,25.2-3.2,38.5,5.6c12.5,8.2,7.2,27.8-7.7,28.6-6.4.4-11.2.5-17.1,3.7-5.7,3.1-7.1,6.2-6.6,12.8.1,1.2.8,1.9,2.1,2.1h41.3c1.1,0,2-.8,2.1-1.9.3-2.4.1-6.1-1-8.2-1.7-3.1-4.5-4-7.3-5.6-2.1-1.2-1-4.3,1.3-4s3.3,1.6,4.1,2.1c6.3,4,7.7,8.6,7.2,15.9s-2.5,5.6-5.5,5.9ZM29,7.3c-8.8.7-13.5,11-8.1,18.2,4.8,6.5,14.9,5.9,18.9-1.1,4.6-8-1.6-17.9-10.8-17.1Z"/>
</svg>