<?xml version="1.0" encoding="UTF-8"?>
<svg id="Layer_1" xmlns="http://www.w3.org/2000/svg" xmlns:svg="http://www.w3.org/2000/svg" version="1.1" viewBox="0 0 60 60">
  <!-- Generator: Adobe Illustrator 29.0.1, SVG Export Plug-In . SVG Version: 2.1.0 Build 192)  -->
  <defs>
    <style>
      .st0 {
        fill: #fff;
      }
    </style>
  </defs>
  <path class="st0" d="M5.3,50.4l13.1-13.3c-1.7-2.3-3-5-3.6-7.8C11.9,15.4,24.2,3.4,38,6.4s14.5,9.2,15,17.5c0,.9,0,1.8,0,2.6l-.3,2.3c-2.2,11.6-14.3,18.7-25.5,14.7-1.9-.7-3.7-1.7-5.3-2.9l-12.7,12.7-1.3.7h-.8c-1.6-.4-2.5-2.1-1.7-3.6ZM21,32.4c5.2,9.3,18.3,10,24.5,1.4,6.8-9.4.3-22.4-11.1-23s-18.9,11.7-13.4,21.6Z"/>
</svg>